<mxfile host="app.diagrams.net" agent="Mozilla/5.0 (Windows NT 10.0; Win64; x64) AppleWebKit/537.36 (KHTML, like Gecko) Chrome/130.0.0.0 Safari/537.36" version="24.8.3">
  <diagram name="Page-1" id="QStU3nN7Gu4it86FkcUS">
    <mxGraphModel dx="1032" dy="1097" grid="1" gridSize="10" guides="1" tooltips="1" connect="1" arrows="1" fold="1" page="1" pageScale="1" pageWidth="850" pageHeight="1100" math="0" shadow="0">
      <root>
        <mxCell id="0" />
        <mxCell id="1" parent="0" />
        <mxCell id="au-wWXG7681iPkZY-va2-5" value="" style="edgeStyle=orthogonalEdgeStyle;rounded=0;orthogonalLoop=1;jettySize=auto;html=1;" edge="1" parent="1" source="au-wWXG7681iPkZY-va2-1" target="au-wWXG7681iPkZY-va2-3">
          <mxGeometry relative="1" as="geometry" />
        </mxCell>
        <mxCell id="au-wWXG7681iPkZY-va2-6" style="edgeStyle=orthogonalEdgeStyle;rounded=0;orthogonalLoop=1;jettySize=auto;html=1;exitX=0.5;exitY=1;exitDx=0;exitDy=0;entryX=0.5;entryY=0;entryDx=0;entryDy=0;" edge="1" parent="1" source="au-wWXG7681iPkZY-va2-1" target="au-wWXG7681iPkZY-va2-2">
          <mxGeometry relative="1" as="geometry" />
        </mxCell>
        <mxCell id="au-wWXG7681iPkZY-va2-7" style="edgeStyle=orthogonalEdgeStyle;rounded=0;orthogonalLoop=1;jettySize=auto;html=1;exitX=0.5;exitY=1;exitDx=0;exitDy=0;entryX=0.5;entryY=0;entryDx=0;entryDy=0;" edge="1" parent="1" source="au-wWXG7681iPkZY-va2-1" target="au-wWXG7681iPkZY-va2-4">
          <mxGeometry relative="1" as="geometry" />
        </mxCell>
        <mxCell id="au-wWXG7681iPkZY-va2-1" value="sub_list_sort" style="rounded=0;whiteSpace=wrap;html=1;" vertex="1" parent="1">
          <mxGeometry x="365" y="20" width="120" height="60" as="geometry" />
        </mxCell>
        <mxCell id="au-wWXG7681iPkZY-va2-2" value="identify_sorted_runs" style="rounded=0;whiteSpace=wrap;html=1;" vertex="1" parent="1">
          <mxGeometry x="110" y="130" width="120" height="60" as="geometry" />
        </mxCell>
        <mxCell id="au-wWXG7681iPkZY-va2-9" style="edgeStyle=orthogonalEdgeStyle;rounded=0;orthogonalLoop=1;jettySize=auto;html=1;exitX=0.5;exitY=1;exitDx=0;exitDy=0;entryX=0.5;entryY=0;entryDx=0;entryDy=0;" edge="1" parent="1" source="au-wWXG7681iPkZY-va2-3" target="au-wWXG7681iPkZY-va2-8">
          <mxGeometry relative="1" as="geometry" />
        </mxCell>
        <mxCell id="au-wWXG7681iPkZY-va2-3" value="merge_runs_into_destination" style="rounded=0;whiteSpace=wrap;html=1;" vertex="1" parent="1">
          <mxGeometry x="330" y="130" width="190" height="60" as="geometry" />
        </mxCell>
        <mxCell id="au-wWXG7681iPkZY-va2-18" style="edgeStyle=orthogonalEdgeStyle;rounded=0;orthogonalLoop=1;jettySize=auto;html=1;exitX=0.5;exitY=1;exitDx=0;exitDy=0;entryX=0.5;entryY=0;entryDx=0;entryDy=0;" edge="1" parent="1" source="au-wWXG7681iPkZY-va2-4" target="au-wWXG7681iPkZY-va2-15">
          <mxGeometry relative="1" as="geometry" />
        </mxCell>
        <mxCell id="au-wWXG7681iPkZY-va2-19" style="edgeStyle=orthogonalEdgeStyle;rounded=0;orthogonalLoop=1;jettySize=auto;html=1;exitX=0.5;exitY=1;exitDx=0;exitDy=0;entryX=0.5;entryY=0;entryDx=0;entryDy=0;" edge="1" parent="1" source="au-wWXG7681iPkZY-va2-4" target="au-wWXG7681iPkZY-va2-14">
          <mxGeometry relative="1" as="geometry" />
        </mxCell>
        <mxCell id="au-wWXG7681iPkZY-va2-4" value="is_sorted" style="rounded=0;whiteSpace=wrap;html=1;" vertex="1" parent="1">
          <mxGeometry x="620" y="130" width="120" height="60" as="geometry" />
        </mxCell>
        <mxCell id="au-wWXG7681iPkZY-va2-11" style="edgeStyle=orthogonalEdgeStyle;rounded=0;orthogonalLoop=1;jettySize=auto;html=1;exitX=0.5;exitY=1;exitDx=0;exitDy=0;entryX=0.5;entryY=0;entryDx=0;entryDy=0;" edge="1" parent="1" source="au-wWXG7681iPkZY-va2-8" target="au-wWXG7681iPkZY-va2-10">
          <mxGeometry relative="1" as="geometry" />
        </mxCell>
        <mxCell id="au-wWXG7681iPkZY-va2-8" value="find_run_with_&lt;div&gt;smallest_element&lt;/div&gt;" style="rounded=0;whiteSpace=wrap;html=1;" vertex="1" parent="1">
          <mxGeometry x="365" y="230" width="120" height="60" as="geometry" />
        </mxCell>
        <mxCell id="au-wWXG7681iPkZY-va2-16" style="edgeStyle=orthogonalEdgeStyle;rounded=0;orthogonalLoop=1;jettySize=auto;html=1;exitX=0.5;exitY=1;exitDx=0;exitDy=0;" edge="1" parent="1" source="au-wWXG7681iPkZY-va2-10" target="au-wWXG7681iPkZY-va2-13">
          <mxGeometry relative="1" as="geometry" />
        </mxCell>
        <mxCell id="au-wWXG7681iPkZY-va2-17" style="edgeStyle=orthogonalEdgeStyle;rounded=0;orthogonalLoop=1;jettySize=auto;html=1;exitX=0.5;exitY=1;exitDx=0;exitDy=0;entryX=0.5;entryY=0;entryDx=0;entryDy=0;" edge="1" parent="1" source="au-wWXG7681iPkZY-va2-10" target="au-wWXG7681iPkZY-va2-12">
          <mxGeometry relative="1" as="geometry" />
        </mxCell>
        <mxCell id="au-wWXG7681iPkZY-va2-10" value="remove_first_element" style="rounded=0;whiteSpace=wrap;html=1;" vertex="1" parent="1">
          <mxGeometry x="365" y="330" width="120" height="60" as="geometry" />
        </mxCell>
        <mxCell id="au-wWXG7681iPkZY-va2-12" value="copy" style="rounded=0;whiteSpace=wrap;html=1;" vertex="1" parent="1">
          <mxGeometry x="450" y="450" width="120" height="60" as="geometry" />
        </mxCell>
        <mxCell id="au-wWXG7681iPkZY-va2-13" value="clear" style="rounded=0;whiteSpace=wrap;html=1;" vertex="1" parent="1">
          <mxGeometry x="280" y="450" width="120" height="60" as="geometry" />
        </mxCell>
        <mxCell id="au-wWXG7681iPkZY-va2-14" value="clear" style="rounded=0;whiteSpace=wrap;html=1;" vertex="1" parent="1">
          <mxGeometry x="710" y="270" width="120" height="60" as="geometry" />
        </mxCell>
        <mxCell id="au-wWXG7681iPkZY-va2-15" value="copy" style="rounded=0;whiteSpace=wrap;html=1;" vertex="1" parent="1">
          <mxGeometry x="540" y="270" width="120" height="60" as="geometry" />
        </mxCell>
      </root>
    </mxGraphModel>
  </diagram>
</mxfile>
